# xmcd
#
# Track frame offsets: 
#        150
#        11590
#        23604
#        32292
#        41095
#        49752
#        58673
#        69692
#        78078
#
# Disc length: 1212 seconds
#
# Revision: 0
# Processed by: cddbd v1.5.2PL0 Copyright (c) Steve Scherf et al.
# Submitted via: ExactAudioCopy v0.99pb5
#
DISCID=6504ba09
DTITLE=Brian McDowell - The Contestant
DYEAR=2010
DGENRE=Bluegrass
TTITLE0=Whiskey Before Breakfast
TTITLE1=Clarinet Polka
TTITLE2=Little Rock Getaway
TTITLE3=Angel's Waltz
TTITLE4=Swing 42
TTITLE5=Sweet Georgia Brown
TTITLE6=Over the Waterfall
TTITLE7=New Camptown Races
TTITLE8=Salt Creek
EXTD=
EXTT0=
EXTT1=
EXTT2=
EXTT3=
EXTT4=
EXTT5=
EXTT6=
EXTT7=
EXTT8=
PLAYORDER=
